<svg width="34" height="24" viewBox="0 0 34 24" fill="none" xmlns="http://www.w3.org/2000/svg">
<path d="M5.07357 7.32036C5.07483 7.07068 5.12754 6.83614 5.23169 6.61672C5.33586 6.39136 5.47851 6.1989 5.65963 6.03934C5.84078 5.87384 6.05072 5.74415 6.28947 5.65029C6.53468 5.55051 6.79252 5.50134 7.06297 5.50276L14.5778 5.54225C14.8483 5.54367 15.1024 5.59554 15.3402 5.69785C15.5844 5.79426 15.7962 5.92616 15.9757 6.09356C16.1552 6.25501 16.2959 6.44896 16.3977 6.6754C16.4997 6.8959 16.55 7.13099 16.5487 7.38067L16.5404 9.03034L14.5602 9.01993L14.5686 7.37026L7.05371 7.33077L7.00743 16.4619L14.5223 16.5014L14.5306 14.8606L16.5108 14.8711L16.5025 16.5118C16.5012 16.7615 16.4485 16.999 16.3443 17.2244C16.2401 17.4438 16.0975 17.6362 15.9163 17.8017C15.7352 17.9672 15.522 18.0969 15.2768 18.1907C15.0381 18.2846 14.7835 18.3308 14.513 18.3294L6.99817 18.2899C6.72771 18.2885 6.47037 18.2396 6.22615 18.1432C5.98838 18.0468 5.77976 17.9149 5.60029 17.7475C5.42083 17.5801 5.28014 17.3862 5.17822 17.1657C5.07634 16.9392 5.02603 16.7012 5.02729 16.4515L5.07357 7.32036Z" fill="#BBBBBB"/>
<path d="M28.6688 10.182C28.6597 11.9654 27.8303 12.9776 26.1806 13.2187L28.7623 18.4043L26.5697 18.3928L24.0262 13.2698L19.6892 13.247L19.6633 18.3565L17.6832 18.3461L17.748 5.55891L25.3305 5.59876C27.5714 5.61054 28.6867 6.65379 28.6761 8.7285L28.6688 10.182ZM19.6985 11.419L25.1946 11.4478C25.7226 11.4506 26.1031 11.3456 26.336 11.1328C26.5689 10.92 26.6866 10.5699 26.6891 10.0824L26.6955 8.80727C26.698 8.3198 26.5839 7.96845 26.3531 7.75322C26.1224 7.53799 25.743 7.42899 25.215 7.42621L19.7189 7.39733L19.6985 11.419Z" fill="#BBBBBB"/>
<path d="M2.19638 4.68408C2.76246 7.34173 3.07016 8.92015 3.11949 9.41935C3.16881 9.91854 3.15778 10.2822 3.08638 10.5103C3.02048 10.7208 2.89422 10.7958 2.7076 10.7352C2.53963 10.6807 2.40902 10.474 2.31576 10.1152C1.8132 8.50247 1.13113 6.93782 0.269556 5.4212C0.0533369 5.06111 -0.0328054 4.81088 0.0111296 4.67053C0.0605565 4.51262 0.124247 4.40767 0.202202 4.35567C0.280156 4.30366 0.543107 4.18608 0.991053 4.00292C1.44449 3.80222 2.35686 3.38326 3.72816 2.74606C6.27203 1.5811 8.41405 0.681907 10.1542 0.0484812C10.2937 -0.00289474 10.41 -0.013438 10.5033 0.0168513C10.5967 0.0471406 10.6131 0.158781 10.5527 0.351772C10.4978 0.527218 10.2419 0.753411 9.7852 1.03035C8.31068 1.86597 5.78107 3.08388 2.19638 4.68408Z" fill="#BBBBBB"/>
<path d="M31.772 18.6328C30.701 15.338 30.2133 13.4666 30.3087 13.0187C30.3468 12.8395 30.4101 12.7315 30.4985 12.6947C30.6062 12.6622 30.6793 12.6502 30.7177 12.6587C30.8909 12.697 31.0412 12.8896 31.1687 13.2368C31.7635 14.7003 32.5853 16.1858 33.634 17.6932C33.7073 17.822 33.7652 17.9286 33.8077 18.013C33.9465 18.2125 34.0101 18.3392 33.9987 18.3929C33.9911 18.4288 33.9796 18.4825 33.9643 18.5542C33.9491 18.6259 33.8953 18.6891 33.8031 18.7437C33.7339 18.7848 33.6763 18.8189 33.6302 18.8463C33.6071 18.8599 33.5283 18.8988 33.3938 18.9629C33.2593 19.027 33.0556 19.1321 32.7828 19.2782C32.5291 19.4286 31.9201 19.7819 30.9555 20.3381C29.9948 20.8764 29.2281 21.3075 28.6556 21.6313C25.7503 23.2599 24.1823 24.0487 23.9514 23.9977C23.836 23.9722 23.7973 23.8698 23.8355 23.6906C23.8737 23.5114 24.106 23.2719 24.5324 22.9721C25.5851 22.1915 27.9983 20.745 31.772 18.6328Z" fill="#BBBBBB"/>
</svg>
