<svg width="165" height="127" viewBox="0 0 165 127" fill="none" xmlns="http://www.w3.org/2000/svg">
<path d="M24.621 38.4808C24.6271 37.1683 24.8829 35.9354 25.3883 34.782C25.8938 33.5974 26.5861 32.5857 27.465 31.7469C28.3441 30.8769 29.3629 30.1952 30.5215 29.7018C31.7115 29.1773 32.9627 28.9188 34.2752 28.9262L70.7433 29.1339C72.0558 29.1413 73.2889 29.414 74.4427 29.9518C75.6278 30.4586 76.6558 31.1519 77.5267 32.0319C78.3977 32.8806 79.0805 33.9001 79.5749 35.0905C80.0695 36.2496 80.3137 37.4853 80.3076 38.7978L80.267 47.4696L70.6578 47.4149L70.6984 38.7431L34.2302 38.5355L34.0056 86.535L70.4738 86.7426L70.5141 78.1177L80.1234 78.1724L80.083 86.7973C80.0769 88.1098 79.821 89.3583 79.3155 90.543C78.8101 91.6964 78.1178 92.7081 77.2388 93.5781C76.3597 94.4481 75.3252 95.1297 74.1354 95.6229C72.9768 96.1164 71.7413 96.3593 70.4288 96.3519L33.9607 96.1443C32.6482 96.1368 31.3994 95.8797 30.2143 95.3729C29.0604 94.8663 28.048 94.1731 27.1771 93.2931C26.3062 92.4131 25.6234 91.3936 25.1289 90.2345C24.6344 89.0442 24.3903 87.7928 24.3964 86.4803L24.621 38.4808Z" fill="black"/>
<path d="M139.124 53.5235C139.08 62.8984 135.055 68.2193 127.049 69.4863L139.578 96.7455L128.937 96.6849L116.594 69.7549L95.5478 69.6351L95.4222 96.4941L85.813 96.4394L86.1274 29.2214L122.924 29.4309C133.799 29.4928 139.21 34.9768 139.159 45.883L139.124 53.5235ZM95.5928 60.0258L122.264 60.1776C124.827 60.1922 126.673 59.6402 127.803 58.5216C128.934 57.4031 129.505 55.5625 129.517 53.0001L129.548 46.297C129.56 43.7345 129.006 41.8876 127.886 40.7562C126.767 39.6248 124.926 39.0518 122.363 39.0372L95.6917 38.8854L95.5928 60.0258Z" fill="black"/>
<path d="M10.6586 24.6227C13.4056 38.5931 14.8989 46.8904 15.1382 49.5145C15.3776 52.1386 15.3241 54.0501 14.9776 55.2491C14.6578 56.3558 14.0451 56.7499 13.1394 56.4315C12.3243 56.1449 11.6905 55.0584 11.2379 53.1721C8.79908 44.6948 5.48914 36.4699 1.3081 28.4975C0.258833 26.6046 -0.159198 25.2893 0.0540099 24.5515C0.293869 23.7214 0.602946 23.1697 0.981244 22.8963C1.35954 22.623 2.63559 22.0049 4.80938 21.0421C7.00982 19.987 11.4374 17.7847 18.092 14.4352C30.4369 8.31135 40.8317 3.58457 49.2764 0.25485C49.953 -0.0152167 50.5178 -0.0706395 50.9706 0.0885819C51.4234 0.247803 51.5032 0.83466 51.2101 1.84915C50.9436 2.77142 49.7021 3.96044 47.4856 5.41623C40.33 9.80882 28.0543 16.211 10.6586 24.6227Z" fill="black"/>
<path d="M154.183 97.9469C148.986 80.6272 146.619 70.7899 147.082 68.435C147.267 67.493 147.574 66.9254 148.003 66.7321C148.526 66.5612 148.88 66.4981 149.067 66.5428C149.907 66.7438 150.637 67.7567 151.255 69.5815C154.142 77.2746 158.13 85.0833 163.219 93.0077C163.575 93.6845 163.856 94.2449 164.062 94.6887C164.735 95.7375 165.044 96.4032 164.989 96.6858C164.952 96.8742 164.896 97.1567 164.822 97.5335C164.748 97.9103 164.487 98.2424 164.04 98.5299C163.704 98.7454 163.424 98.9251 163.2 99.0688C163.089 99.1407 162.706 99.3451 162.053 99.682C161.401 100.019 160.412 100.572 159.088 101.34C157.857 102.13 154.902 103.987 150.221 106.911C145.559 109.741 141.838 112.007 139.06 113.709C124.961 122.27 117.352 126.416 116.231 126.148C115.671 126.014 115.484 125.476 115.669 124.534C115.854 123.592 116.981 122.333 119.051 120.757C124.159 116.653 135.87 109.05 154.183 97.9469Z" fill="black"/>
</svg>
