<svg width="104" height="144" viewBox="0 0 104 144" fill="none" xmlns="http://www.w3.org/2000/svg">
<circle cx="52" cy="72" r="52" fill="#FFFDFD"/>
<circle cx="52" cy="72" r="52" fill="url(#paint0_linear)"/>
<path d="M67.8359 39.5156C65.3047 38.2969 62.9141 37.4297 60.6641 36.9141C58.4609 36.3516 56.375 36.0703 54.4062 36.0703C50.6094 36.0703 47.5391 36.75 45.1953 38.1094C42.8984 39.4219 41.1172 41.2266 39.8516 43.5234C38.5859 45.8203 37.7422 48.4922 37.3203 51.5391C36.8984 54.5859 36.6875 57.8203 36.6875 61.2422V104.766C39.3594 106.406 42.0312 107.555 44.7031 108.211C47.4219 108.867 50.4688 109.195 53.8438 109.195C55.4375 109.195 56.9141 109.125 58.2734 108.984C59.6328 108.844 60.9219 108.633 62.1406 108.352C63.4062 108.023 64.6484 107.578 65.8672 107.016C67.1328 106.453 68.4688 105.75 69.875 104.906L74.0234 113.977C71.4922 115.289 68.4922 116.344 65.0234 117.141C61.6016 117.984 57.6875 118.406 53.2812 118.406C51.5469 118.406 49.4375 118.266 46.9531 117.984C44.5156 117.75 41.8672 117.234 39.0078 116.438C36.1953 115.641 33.2656 114.469 30.2188 112.922C27.2188 111.375 24.2891 109.336 21.4297 106.805L26.6328 100.125V61.5938C26.6328 56.8125 27.0312 52.3359 27.8281 48.1641C28.6719 43.9453 30.125 40.2656 32.1875 37.125C34.25 33.9375 37.0391 31.4297 40.5547 29.6016C44.1172 27.7734 48.6406 26.8594 54.125 26.8594C57.5938 26.8594 60.6641 27.1875 63.3359 27.8438C66.0547 28.5 68.75 29.5547 71.4219 31.0078L67.8359 39.5156Z" fill="black"/>
<path d="M42.4062 45.4688C44.8438 44.4062 47.4219 43.5469 50.1406 42.8906C52.8906 42.2344 55.5312 41.9062 58.0625 41.9062C60.8125 41.9062 63.3281 42.2812 65.6094 43.0312C67.8906 43.75 69.8281 44.8125 71.4219 46.2188C72.5781 47.25 73.4844 48.3281 74.1406 49.4531C74.8281 50.5781 75.3438 51.7344 75.6875 52.9219C76.0312 54.1094 76.25 55.3125 76.3438 56.5312C76.4375 57.75 76.4844 58.9531 76.4844 60.1406V70.9688H67.2031L79.7656 100.266L73.5312 102.938L59.7031 70.9688H51.7344V102H45.0312V50.7188L42.4062 45.4688ZM51.7344 64.8281H69.9688V61.5938C69.9688 60.875 69.9375 60.0938 69.875 59.25C69.8125 58.375 69.6719 57.5156 69.4531 56.6719C69.2656 55.7969 68.9844 54.9531 68.6094 54.1406C68.2656 53.2969 67.7969 52.5469 67.2031 51.8906C65.7031 50.3594 64.1719 49.3438 62.6094 48.8438C61.0781 48.3125 59.5625 48.0469 58.0625 48.0469C55.4375 48.0469 53.3281 48.4375 51.7344 49.2188V64.8281Z" fill="black"/>
<defs>
<linearGradient id="paint0_linear" x1="109" y1="31.5" x2="-70" y2="144" gradientUnits="userSpaceOnUse">
<stop stop-color="#073CFB"/>
<stop offset="1" stop-color="white" stop-opacity="0"/>
</linearGradient>
</defs>
</svg>
