<svg width="104" height="144" viewBox="0 0 104 144" fill="none" xmlns="http://www.w3.org/2000/svg">
<circle cx="52" cy="72" r="51" fill="#070707" stroke="#03506F" stroke-width="2"/>
<path d="M67.8359 39.5156C65.3047 38.2969 62.9141 37.4297 60.6641 36.9141C58.4609 36.3516 56.375 36.0703 54.4062 36.0703C50.6094 36.0703 47.5391 36.75 45.1953 38.1094C42.8984 39.4219 41.1172 41.2266 39.8516 43.5234C38.5859 45.8203 37.7422 48.4922 37.3203 51.5391C36.8984 54.5859 36.6875 57.8203 36.6875 61.2422V104.766C39.3594 106.406 42.0312 107.555 44.7031 108.211C47.4219 108.867 50.4688 109.195 53.8438 109.195C55.4375 109.195 56.9141 109.125 58.2734 108.984C59.6328 108.844 60.9219 108.633 62.1406 108.352C63.4062 108.023 64.6484 107.578 65.8672 107.016C67.1328 106.453 68.4688 105.75 69.875 104.906L74.0234 113.977C71.4922 115.289 68.4922 116.344 65.0234 117.141C61.6016 117.984 57.6875 118.406 53.2812 118.406C51.5469 118.406 49.4375 118.266 46.9531 117.984C44.5156 117.75 41.8672 117.234 39.0078 116.438C36.1953 115.641 33.2656 114.469 30.2188 112.922C27.2188 111.375 24.2891 109.336 21.4297 106.805L26.6328 100.125V61.5938C26.6328 56.8125 27.0312 52.3359 27.8281 48.1641C28.6719 43.9453 30.125 40.2656 32.1875 37.125C34.25 33.9375 37.0391 31.4297 40.5547 29.6016C44.1172 27.7734 48.6406 26.8594 54.125 26.8594C57.5938 26.8594 60.6641 27.1875 63.3359 27.8438C66.0547 28.5 68.75 29.5547 71.4219 31.0078L67.8359 39.5156Z" fill="black"/>
<path d="M67.8359 39.5156L66.9683 41.3176L68.8624 42.2296L69.6789 40.2924L67.8359 39.5156ZM60.6641 36.9141L60.1693 38.8519L60.1932 38.858L60.2173 38.8635L60.6641 36.9141ZM45.1953 38.1094L46.1876 39.8459L46.1987 39.8394L45.1953 38.1094ZM36.6875 104.766H34.6875V105.885L35.641 106.47L36.6875 104.766ZM44.7031 108.211L44.2261 110.153L44.2338 110.155L44.7031 108.211ZM62.1406 108.352L62.5903 110.3L62.6165 110.294L62.6425 110.288L62.1406 108.352ZM65.8672 107.016L65.0549 105.188L65.0419 105.194L65.0291 105.2L65.8672 107.016ZM69.875 104.906L71.6938 104.074L70.7636 102.041L68.846 103.191L69.875 104.906ZM74.0234 113.977L74.9441 115.752L76.634 114.876L75.8422 113.145L74.0234 113.977ZM65.0234 117.141L64.5756 115.191L64.5601 115.195L64.5446 115.199L65.0234 117.141ZM46.9531 117.984L47.1781 115.997L47.1613 115.995L47.1445 115.994L46.9531 117.984ZM39.0078 116.438L38.4626 118.362L38.4709 118.364L39.0078 116.438ZM30.2188 112.922L29.3022 114.7L29.3134 114.705L30.2188 112.922ZM21.4297 106.805L19.8519 105.576L18.6977 107.057L20.104 108.302L21.4297 106.805ZM26.6328 100.125L28.2106 101.354L28.6328 100.812V100.125H26.6328ZM27.8281 48.1641L25.867 47.7718L25.8653 47.7803L25.8636 47.7888L27.8281 48.1641ZM32.1875 37.125L33.8593 38.2229L33.8666 38.2115L32.1875 37.125ZM40.5547 29.6016L39.6416 27.8221L39.632 27.8271L40.5547 29.6016ZM63.3359 27.8438L62.8589 29.786L62.8667 29.7879L63.3359 27.8438ZM71.4219 31.0078L73.2649 31.7846L73.9682 30.116L72.3774 29.2508L71.4219 31.0078ZM68.7036 37.7136C66.0658 36.4436 63.5335 35.5198 61.1108 34.9646L60.2173 38.8635C62.2946 39.3396 64.5436 40.1502 66.9683 41.3176L68.7036 37.7136ZM61.1588 34.9762C58.8184 34.3787 56.5653 34.0703 54.4062 34.0703V38.0703C56.1847 38.0703 58.1035 38.3245 60.1693 38.8519L61.1588 34.9762ZM54.4062 34.0703C50.3914 34.0703 46.9388 34.7861 44.1919 36.3793L46.1987 39.8394C48.1393 38.7139 50.8274 38.0703 54.4062 38.0703V34.0703ZM44.203 36.3729C41.5899 37.8661 39.5446 39.9364 38.0999 42.5582L41.6032 44.4886C42.6898 42.5167 44.207 40.9776 46.1876 39.8459L44.203 36.3729ZM38.0999 42.5582C36.6977 45.103 35.789 48.0166 35.3392 51.2648L39.3014 51.8134C39.6954 48.9678 40.4742 46.5376 41.6032 44.4886L38.0999 42.5582ZM35.3392 51.2648C34.9034 54.412 34.6875 57.7386 34.6875 61.2422H38.6875C38.6875 57.902 38.8934 54.7599 39.3014 51.8134L35.3392 51.2648ZM34.6875 61.2422V104.766H38.6875V61.2422H34.6875ZM35.641 106.47C38.465 108.204 41.3274 109.441 44.2261 110.153L45.1802 106.269C42.7351 105.668 40.2537 104.608 37.734 103.061L35.641 106.47ZM44.2338 110.155C47.134 110.855 50.342 111.195 53.8438 111.195V107.195C50.5955 107.195 47.7098 106.879 45.1724 106.267L44.2338 110.155ZM53.8438 111.195C55.4953 111.195 57.0414 111.123 58.4792 110.974L58.0676 106.995C56.7867 107.127 55.3797 107.195 53.8438 107.195V111.195ZM58.4792 110.974C59.9132 110.825 61.2842 110.602 62.5903 110.3L61.6909 106.403C60.5595 106.664 59.3524 106.862 58.0676 106.995L58.4792 110.974ZM62.6425 110.288C64.0266 109.929 65.3812 109.443 66.7053 108.832L65.0291 105.2C63.9157 105.714 62.7859 106.118 61.6387 106.416L62.6425 110.288ZM66.6795 108.843C68.0316 108.242 69.4402 107.5 70.904 106.621L68.846 103.191C67.4973 104 66.234 104.664 65.0549 105.188L66.6795 108.843ZM68.0562 105.738L72.2046 114.808L75.8422 113.145L71.6938 104.074L68.0562 105.738ZM73.1028 112.201C70.7528 113.42 67.9188 114.423 64.5756 115.191L65.4712 119.09C69.0655 118.264 72.2316 117.159 74.9441 115.752L73.1028 112.201ZM64.5446 115.199C61.3127 115.996 57.5644 116.406 53.2812 116.406V120.406C57.8106 120.406 61.8904 119.973 65.5022 119.082L64.5446 115.199ZM53.2812 116.406C51.6468 116.406 49.6173 116.273 47.1781 115.997L46.7281 119.972C49.2577 120.258 51.4469 120.406 53.2812 120.406V116.406ZM47.1445 115.994C44.8453 115.772 42.3139 115.283 39.5447 114.511L38.4709 118.364C41.4205 119.186 44.1859 119.728 46.7617 119.975L47.1445 115.994ZM39.553 114.513C36.8836 113.757 34.0746 112.636 31.1241 111.139L29.3134 114.705C32.4567 116.301 35.507 117.524 38.4626 118.362L39.553 114.513ZM31.1353 111.144C28.3006 109.683 25.5065 107.743 22.7554 105.307L20.104 108.302C23.0716 110.929 26.1369 113.067 29.3022 114.699L31.1353 111.144ZM23.0075 108.034L28.2106 101.354L25.055 98.896L19.8519 105.576L23.0075 108.034ZM28.6328 100.125V61.5938H24.6328V100.125H28.6328ZM28.6328 61.5938C28.6328 56.923 29.0221 52.5732 29.7926 48.5393L25.8636 47.7888C25.0404 52.0987 24.6328 56.702 24.6328 61.5938H28.6328ZM29.7893 48.5563C30.59 44.553 31.9565 41.1202 33.8592 38.2229L30.5158 36.0271C28.2935 39.411 26.7538 43.3376 25.867 47.7718L29.7893 48.5563ZM33.8666 38.2115C35.7325 35.3279 38.2553 33.0515 41.4774 31.376L39.632 27.8271C35.8229 29.8079 32.7675 32.5471 30.5084 36.0385L33.8666 38.2115ZM41.4678 31.381C44.663 29.7413 48.8468 28.8594 54.125 28.8594V24.8594C48.4344 24.8594 43.5714 25.8056 39.6416 27.8222L41.4678 31.381ZM54.125 28.8594C57.4726 28.8594 60.3774 29.1765 62.8589 29.786L63.813 25.9015C60.9507 25.1985 57.7149 24.8594 54.125 24.8594V28.8594ZM62.8667 29.7879C65.4018 30.3998 67.9344 31.3878 70.4663 32.7648L72.3774 29.2508C69.5656 27.7216 66.7076 26.6002 63.8052 25.8996L62.8667 29.7879ZM69.5789 30.231L65.993 38.7388L69.6789 40.2924L73.2649 31.7846L69.5789 30.231Z" fill="#03506F"/>
<path d="M42.4062 47.4688C44.8438 46.4062 47.4219 45.5469 50.1406 44.8906C52.8906 44.2344 55.5312 43.9062 58.0625 43.9062C60.8125 43.9062 63.3281 44.2812 65.6094 45.0312C67.8906 45.75 69.8281 46.8125 71.4219 48.2188C72.5781 49.25 73.4844 50.3281 74.1406 51.4531C74.8281 52.5781 75.3438 53.7344 75.6875 54.9219C76.0312 56.1094 76.25 57.3125 76.3438 58.5312C76.4375 59.75 76.4844 60.9531 76.4844 62.1406V72.9688H67.2031L79.7656 102.266L73.5312 104.938L59.7031 72.9688H51.7344V104H45.0312V52.7188L42.4062 47.4688ZM51.7344 66.8281H69.9688V63.5938C69.9688 62.875 69.9375 62.0938 69.875 61.25C69.8125 60.375 69.6719 59.5156 69.4531 58.6719C69.2656 57.7969 68.9844 56.9531 68.6094 56.1406C68.2656 55.2969 67.7969 54.5469 67.2031 53.8906C65.7031 52.3594 64.1719 51.3438 62.6094 50.8438C61.0781 50.3125 59.5625 50.0469 58.0625 50.0469C55.4375 50.0469 53.3281 50.4375 51.7344 51.2188V66.8281Z" fill="black"/>
<path d="M42.4062 47.4688L41.6071 45.6354L39.6747 46.4777L40.6174 48.3632L42.4062 47.4688ZM50.1406 44.8906L49.6764 42.9452L49.6713 42.9465L50.1406 44.8906ZM65.6094 45.0312L64.9847 46.9312L64.9965 46.9351L65.0084 46.9388L65.6094 45.0312ZM71.4219 48.2188L72.7531 46.7261L72.7451 46.7191L71.4219 48.2188ZM74.1406 51.4531L72.4131 52.4609L72.4234 52.4786L72.4341 52.496L74.1406 51.4531ZM76.4844 72.9688V74.9688H78.4844V72.9688H76.4844ZM67.2031 72.9688V70.9688H64.1694L65.365 73.7569L67.2031 72.9688ZM79.7656 102.266L80.5535 104.104L82.3921 103.316L81.6038 101.477L79.7656 102.266ZM73.5312 104.938L71.6956 105.732L72.487 107.561L74.3191 106.776L73.5312 104.938ZM59.7031 72.9688L61.5388 72.1747L61.0171 70.9688H59.7031V72.9688ZM51.7344 72.9688V70.9688H49.7344V72.9688H51.7344ZM51.7344 104V106H53.7344V104H51.7344ZM45.0312 104H43.0312V106H45.0312V104ZM45.0312 52.7188H47.0312V52.2466L46.8201 51.8243L45.0312 52.7188ZM51.7344 66.8281H49.7344V68.8281H51.7344V66.8281ZM69.9688 66.8281V68.8281H71.9688V66.8281H69.9688ZM69.875 61.25L67.8801 61.3925L67.8805 61.3977L69.875 61.25ZM69.4531 58.6719L67.4975 59.0909L67.5064 59.1326L67.5171 59.1738L69.4531 58.6719ZM68.6094 56.1406L66.7572 56.8952L66.7744 56.9374L66.7935 56.9787L68.6094 56.1406ZM67.2031 53.8906L68.6862 52.5488L68.6596 52.5194L68.6318 52.4911L67.2031 53.8906ZM62.6094 50.8438L61.9538 52.7333L61.9767 52.7412L61.9998 52.7486L62.6094 50.8438ZM51.7344 51.2188L50.8541 49.4229L49.7344 49.9718V51.2188H51.7344ZM43.2054 49.3021C45.531 48.2884 47.9983 47.4652 50.6099 46.8348L49.6713 42.9465C46.8454 43.6286 44.1565 44.5241 41.6071 45.6354L43.2054 49.3021ZM50.6049 46.836C53.2202 46.2119 55.7046 45.9062 58.0625 45.9062V41.9062C55.3579 41.9062 52.561 42.2569 49.6764 42.9453L50.6049 46.836ZM58.0625 45.9062C60.6306 45.9062 62.9319 46.2563 64.9847 46.9312L66.234 43.1313C63.7243 42.3062 60.9944 41.9062 58.0625 41.9062V45.9062ZM65.0084 46.9388C67.0565 47.5841 68.7393 48.519 70.0986 49.7184L72.7451 46.7191C70.917 45.106 68.7248 43.9159 66.2104 43.1237L65.0084 46.9388ZM70.0906 49.7113C71.119 50.6285 71.8805 51.5479 72.4131 52.4609L75.8682 50.4454C75.0882 49.1083 74.0373 47.8715 72.7531 46.7262L70.0906 49.7113ZM72.4341 52.496C73.0348 53.4791 73.4753 54.4726 73.7664 55.478L77.6086 54.3658C77.2122 52.9962 76.6214 51.6771 75.8472 50.4102L72.4341 52.496ZM73.7664 55.478C74.0725 56.5356 74.2665 57.6038 74.3496 58.6846L78.3379 58.3779C78.2335 57.0212 77.99 55.6831 77.6086 54.3658L73.7664 55.478ZM74.3496 58.6846C74.4396 59.8538 74.4844 61.0058 74.4844 62.1406H78.4844C78.4844 60.9005 78.4354 59.6462 78.3379 58.3779L74.3496 58.6846ZM74.4844 62.1406V72.9688H78.4844V62.1406H74.4844ZM76.4844 70.9688H67.2031V74.9688H76.4844V70.9688ZM65.365 73.7569L77.9275 103.054L81.6038 101.477L69.0413 72.1806L65.365 73.7569ZM78.9778 100.427L72.7434 103.099L74.3191 106.776L80.5535 104.104L78.9778 100.427ZM75.3669 104.143L61.5388 72.1747L57.8675 73.7628L71.6956 105.732L75.3669 104.143ZM59.7031 70.9688H51.7344V74.9688H59.7031V70.9688ZM49.7344 72.9688V104H53.7344V72.9688H49.7344ZM51.7344 102H45.0312V106H51.7344V102ZM47.0312 104V52.7188H43.0312V104H47.0312ZM46.8201 51.8243L44.1951 46.5743L40.6174 48.3632L43.2424 53.6132L46.8201 51.8243ZM51.7344 68.8281H69.9688V64.8281H51.7344V68.8281ZM71.9688 66.8281V63.5938H67.9688V66.8281H71.9688ZM71.9688 63.5938C71.9688 62.818 71.9351 61.9868 71.8695 61.1023L67.8805 61.3977C67.9399 62.2007 67.9688 62.932 67.9688 63.5938H71.9688ZM71.8699 61.1075C71.7988 60.1119 71.6386 59.1322 71.3891 58.17L67.5171 59.1738C67.7052 59.899 67.8262 60.6381 67.8801 61.3925L71.8699 61.1075ZM71.4087 58.2528C71.1903 57.2334 70.8622 56.2491 70.4253 55.3025L66.7935 56.9787C67.1066 57.6571 67.341 58.3603 67.4975 59.0909L71.4087 58.2528ZM70.4616 55.386C70.0325 54.333 69.4409 53.3829 68.6862 52.5488L65.7201 55.2325C66.1529 55.7108 66.4987 56.2608 66.7572 56.8952L70.4616 55.386ZM68.6318 52.4911C66.9715 50.7961 65.172 49.5639 63.2189 48.9389L61.9998 52.7486C63.1718 53.1236 64.4347 53.9226 65.7744 55.2902L68.6318 52.4911ZM63.2649 48.9542C61.5398 48.3557 59.8029 48.0469 58.0625 48.0469V52.0469C59.3221 52.0469 60.6164 52.2693 61.9538 52.7333L63.2649 48.9542ZM58.0625 48.0469C55.2667 48.0469 52.8212 48.4586 50.8541 49.4229L52.6147 53.0146C53.835 52.4164 55.6083 52.0469 58.0625 52.0469V48.0469ZM49.7344 51.2188V66.8281H53.7344V51.2188H49.7344Z" fill="#03506F"/>
</svg>
